<svg width="314" height="634" viewBox="0 0 314 634" fill="none" xmlns="http://www.w3.org/2000/svg">
<g clip-path="url(#clip0_66_6421)">
<path d="M225.5 40C223.7 37.9 224 34.7 226.1 33L230.9 28.9C233 27.1 236.2 27.4 237.9 29.5L255.6 50.5C257.4 52.6 257.1 55.8 255 57.5L250.2 61.6C248.1 63.4 244.9 63.1 243.2 61L225.5 40Z" fill="black"/>
<path d="M188.2 39.1C186.3 37.1 186.6 34.2 188.9 32.6L234.3 0.999999C236.6 -0.600001 240.1 -0.300001 242.1 1.6L260.9 19.1C262.9 21 264.3 24.7 264 27.5L263 35.9C262.7 38.6 264.6 41.2 267.4 41.7L288.4 45.1C291.1 45.5 293.6 43.7 294 40.9L295 33.7C295.4 31 297.8 29.1 300.3 29.5C302.8 29.9 306.2 32.1 307.6 34.5L313.2 43.5C314.6 45.8 314.1 49.1 311.9 50.8L302.8 57.9C300.6 59.6 297.1 62.4 295 64.1L251.5 99C249.4 100.7 246.1 100.5 244.2 98.5L188.2 39.1ZM217.6 32.2C215.5 34 215.2 37.1 217 39.2L242.5 69.4C244.3 71.5 247.4 71.8 249.5 70L263.5 58.2C265.6 56.4 265.9 53.3 264.1 51.2L238.7 21C236.9 18.9 233.8 18.6 231.7 20.4L217.6 32.2Z" fill="black"/>
<path d="M6.89983 312.3C4.09983 312.3 2.99983 310.3 4.39983 308L17.2998 285.7C18.6998 283.3 21.9998 281.4 24.7998 281.4H85.7998C88.5998 281.4 90.7998 283.7 90.7998 286.4V307.4C90.7998 310.2 88.4998 312.4 85.7998 312.4H6.89983V312.3Z" fill="black"/>
<path d="M121.7 470C121.7 467.2 122.6 462.9 123.7 460.4L156.9 386.3C158 383.8 160.8 383 163.1 384.5L206.2 412.5C208.5 414 209.1 417.1 207.6 419.4L124.3 544.3C122.8 546.6 121.5 546.2 121.5 543.5V470H121.7Z" fill="black"/>
<path d="M99.9998 633.3C97.1998 633.3 94.3998 631.1 93.5998 628.5L80.7998 582.8C80.0998 580.2 78.0998 576.2 76.3998 574L50.2998 540.1C48.5998 537.9 47.8998 534 48.6998 531.4L66.4998 472.2C67.2998 469.6 70.1998 467.4 72.8998 467.4H110.7C113.5 467.4 115.7 469.7 115.7 472.4V628.4C115.7 631.2 113.4 633.4 110.7 633.4H99.9998V633.3Z" fill="black"/>
<path d="M8.69996 486.2C6.99996 484 5.59996 480 5.49996 477.2L4.59996 452.3C4.49996 449.6 6.69996 447.3 9.39996 447.3H40C42.8 447.3 46.6 445.7 48.5 443.8L143.4 348.9C145.3 347 148.7 345.4 150.8 345.4C152.9 345.4 154.7 347.7 154.7 350.4V371.8C154.7 374.6 153.8 378.9 152.7 381.4L118.8 456.9C117.7 459.4 114.5 461.5 111.8 461.5H68.5C65.7 461.5 62.9 463.7 62.1 466.3L44.2 525.7C43.4 528.3 41.4 528.7 39.7 526.5L8.69996 486.2Z" fill="black"/>
<path d="M6.69986 370.3C3.89986 370.3 1.59986 368.1 1.49986 365.3L-0.000138367 323.3C-0.100138 320.6 2.09986 318.3 4.79986 318.3H87.9999C90.7999 318.3 94.9999 319.3 97.3999 320.6L136.2 340.8C138.6 342.1 139 344.7 137.1 346.6L117 366.8C115.1 368.7 111.2 370.3 108.5 370.3H6.69986ZM28.1999 354C28.1999 356.8 30.4999 359 33.1999 359H69.1999C71.9999 359 74.1999 356.7 74.1999 354V332.7C74.1999 329.9 71.8999 327.7 69.1999 327.7H33.1999C30.3999 327.7 28.1999 330 28.1999 332.7V354Z" fill="black"/>
<path d="M164.9 378.4C162.6 376.9 160.7 373.4 160.7 370.7V348.8C160.7 346 162.5 342.4 164.6 340.7L184.3 325.2C186.5 323.5 188.9 320 189.6 317.3L229.4 182.1C230.2 179.5 233.1 177.3 235.8 177.3H278.8C281.6 177.3 283.1 179.5 282.3 182.1L214.3 404.9C213.5 407.5 211 408.5 208.6 407L164.9 378.4Z" fill="black"/>
<path d="M28.1996 275.3C25.3996 275.3 24.2996 273.3 25.6996 271L40.8996 244.7C42.2996 242.3 45.5996 240.4 48.3996 240.4H85.7996C88.5996 240.4 90.7996 242.7 90.7996 245.4V270.4C90.7996 273.2 88.4996 275.4 85.7996 275.4H28.1996V275.3Z" fill="black"/>
<path d="M51.7997 234.3C48.9997 234.3 47.8997 232.3 49.2997 230L81.6997 173.7C83.0997 171.3 86.3997 169.4 89.1997 169.4H208.9C211.7 169.4 215.9 170.5 218.2 171.9L220.8 173.4C223.2 174.8 224.5 178 223.7 180.7L220.9 190.1C220.1 192.7 217.3 195.6 214.7 196.4L97.9997 232.8C95.3997 233.6 90.9997 234.3 88.1997 234.3H51.7997Z" fill="black"/>
<path d="M234.5 171.3C231.7 171.3 227.5 170.2 225.2 168.8L222.1 167C219.7 165.6 217.8 162.3 217.8 159.5V138.7C217.8 135.9 219.6 132.3 221.7 130.6L245.4 111.6C247.5 109.9 251.1 107.1 253.2 105.3L294 72.6C296.1 70.9 297.9 71.7 298 74.5L298.7 123.9C298.7 126.6 298.1 131.1 297.3 133.7L287.3 166.6C286.5 169.2 283.6 171.4 280.8 171.4H234.5V171.3Z" fill="black"/>
<path d="M92.6 163.3C89.8 163.3 88.7 161.3 90.1 159L109.7 125C111.1 122.6 114.3 121.4 116.9 122.3L132.4 127.6C135 128.5 139.3 129.9 141.9 130.8L207 153C209.6 153.9 211.7 156.6 211.7 159C211.7 161.4 209.4 163.4 206.7 163.4H92.6V163.3Z" fill="black"/>
<path d="M147 126.2C144.4 125.3 143.2 122.5 144.4 120L150.6 106.5C151.8 104 150.7 101 148.2 99.7L134.1 92.6C131.6 91.4 130.7 88.4 132.1 86L139.9 72.4C141.3 70 144 69.6 146 71.5L208 130.1C210 132 211.6 135.8 211.6 138.5V143.1C211.6 145.9 209.5 147.4 206.9 146.5L147 126.2Z" fill="black"/>
<path d="M120 117C117.4 116.1 116.4 113.4 117.8 111.1L124.2 100C125.6 97.6 128.7 96.7 131.2 97.9L140.4 102.5C142.9 103.7 143.9 106.8 142.8 109.3L138.7 118.1C137.5 120.6 134.5 121.9 131.9 121L120 117Z" fill="black"/>
<path d="M150 67.1C148 65.2 148.2 62.3 150.4 60.7L175.8 42C178 40.4 181.4 40.7 183.3 42.7L239.5 102.3C241.4 104.3 241.2 107.3 239 109.1L218.8 125.3C216.7 127 213.3 126.9 211.3 125L150 67.1Z" fill="black"/>
<path d="M9.19986 441.3C6.39986 441.3 4.09986 439.1 3.99986 436.3L1.99986 381.3C1.89986 378.6 4.09986 376.3 6.79986 376.3H102.4C105.2 376.3 105.8 377.9 103.9 379.8L45.9999 437.8C44.0999 439.7 40.1999 441.3 37.4999 441.3H9.19986Z" fill="black"/>
<path d="M151.4 339.3C148.6 339.3 144.4 338.3 142 337L101.1 315.8C98.6997 314.5 96.6997 311.2 96.6997 308.5V244.5C96.6997 241.7 98.7997 238.8 101.5 238L212.8 203.1C215.4 202.3 216.9 203.8 216.2 206.4L184.6 313.7C183.8 316.3 181.4 319.9 179.3 321.6L160.7 336.2C158.5 337.9 154.5 339.3 151.8 339.3H151.4Z" fill="black"/>
<path d="M225.5 40C223.7 37.9 224 34.7 226.1 33L230.9 28.9C233 27.1 236.2 27.4 237.9 29.5L255.6 50.5C257.4 52.6 257.1 55.8 255 57.5L250.2 61.6C248.1 63.4 244.9 63.1 243.2 61L225.5 40Z" fill="black"/>
<path d="M39.1997 353C36.3997 353 34.1997 350.7 34.1997 348V338.7C34.1997 335.9 36.4997 333.7 39.1997 333.7H63.1997C65.8997 333.7 68.1997 336 68.1997 338.7V348C68.1997 350.8 65.8997 353 63.1997 353H39.1997Z" fill="black"/>
<path d="M274 36.6C271.3 36.2 269.3 33.6 269.6 30.8L269.7 29.7C270 27 272.5 25.1 275.2 25.5L284.6 26.9C287.3 27.3 289.2 29.9 288.9 32.6L288.7 33.8C288.3 36.5 285.8 38.4 283.1 38L274 36.6Z" fill="black"/>
</g>
<defs>
<clipPath id="clip0_66_6421">
<rect width="313.9" height="633.3" fill="white"/>
</clipPath>
</defs>
</svg>
